# xmcd
#
# Track frame offsets: 
#        150
#        9087
#        23584
#        31242
#        44187
#        51133
#        61900
#        72172
#        83152
#        95038
#        107004
#        118772
#        129496
#        142437
#        155873
#        168952
#        180301
#        191696
#        196984
#        208243
#
# Disc length: 2937 seconds
#
# Revision: 3
# Processed by: cddbd v1.5.2PL0 Copyright (c) Steve Scherf et al.
# Submitted via: ExactAudioCopy v1.1
#
DISCID=1f0b7714
DTITLE=Various Artist - CD04_1939-44
DYEAR=2006
DGENRE=Country
TTITLE0=Gene Autry (1940) - Gaucho Serenade
TTITLE1=Jubileers (1940) - Boogie Woogie Johnson
TTITLE2=Gene Autry (1940) - Ride Tenderfoot Ride
TTITLE3=Nolan Bush (1940) - Until You Went Away
TTITLE4=Gene Autry (1940) - Melody Ranch
TTITLE5=Claude Casey (1939) - Pine State Honky Tonk
TTITLE6=Gene Autry (1940) - El Rancho Grande
TTITLE7=Radio Cowboys (1939) - Mississippi Muddie
TTITLE8=Gene Autry (1940) - Blueberry
TTITLE9=Bob Wills (1941) - Take Me Back To Tulsa
TTITLE10=W.Walker and G.Sullivan (1941) - When My Blue Moon
TTITLE11=Bill Mounce (1941) - Kickin' It Off
TTITLE12=Bill Boyd (1941) - Jitterbug Jive
TTITLE13=Jimmy Hart (1941) - Teeny Weeny
TTITLE14=Shelly Lee Alley (1941)  - The Big House Blues
TTITLE15=Modern Mountaineers (1941) - Mary Jane
TTITLE16=Ernest Tubb (1941) - I Ain't Honky Tonkin' Anymore
TTITLE17=Gene Autry (1941) - Down Mexico Way
TTITLE18=Dickie Mc Bride (1941) - Tulsa Twist
TTITLE19=Hank Penny (1944) - When You Cry
EXTD=
EXTT0=
EXTT1=
EXTT2=
EXTT3=
EXTT4=
EXTT5=
EXTT6=
EXTT7=
EXTT8=
EXTT9=
EXTT10=
EXTT11=
EXTT12=
EXTT13=
EXTT14=
EXTT15=
EXTT16=
EXTT17=
EXTT18=
EXTT19=
PLAYORDER=
